M48
; DRILL file {KiCad 5.1.2} date Sun 28 Apr 2019 05:58:26 PM -05
; FORMAT={-:-/ absolute / metric / decimal}
; #@! TF.CreationDate,2019-04-28T17:58:26-05:00
; #@! TF.GenerationSoftware,Kicad,Pcbnew,5.1.2
FMAT,2
METRIC
T1C0.500
T2C0.700
T3C1.000
T4C3.000
%
G90
G05
T1
X136.051Y-151.866
X140.452Y-89.995
X140.83Y-98.425
X140.851Y-151.884
X154.921Y-35.541
X156.845Y-99.695
X156.845Y-92.85
X157.48Y-107.315
X157.688Y-134.828
X161.29Y-113.915
X161.29Y-133.766
X161.925Y-35.56
X165.735Y-109.22
X165.836Y-131.515
X173.518Y-37.43
X174.625Y-111.76
X176.856Y-109.113
X178.318Y-40.472
X186.69Y-37.465
X186.913Y-40.911
X193.675Y-118.11
X193.675Y-125.095
X196.408Y-109.027
X198.755Y-118.11
X198.755Y-125.095
X201.295Y-111.76
T2
X185.42Y-65.405
X193.04Y-65.405
X190.5Y-69.85
X190.5Y-77.47
X184.785Y-81.915
X193.675Y-81.915
X184.785Y-69.85
X184.785Y-77.47
X145.455Y-78.74
X147.955Y-78.74
X161.29Y-24.765
X171.45Y-24.765
T3
X156.21Y-29.845
X158.75Y-29.845
X161.29Y-29.845
X163.83Y-29.845
X166.37Y-29.845
X168.91Y-29.845
X171.45Y-29.845
X173.99Y-29.845
X176.53Y-29.845
X179.07Y-29.845
X181.61Y-29.845
X184.15Y-29.845
X186.69Y-29.845
X189.23Y-29.845
X191.77Y-29.845
X194.31Y-29.845
X145.415Y-146.05
X145.415Y-148.59
X145.415Y-151.13
X147.955Y-146.05
X147.955Y-148.59
X147.955Y-151.13
X146.05Y-69.85
X146.05Y-72.39
X148.59Y-69.85
X148.59Y-72.39
X183.515Y-115.57
X186.055Y-115.57
X188.595Y-115.57
X191.135Y-115.57
X193.675Y-115.57
X196.215Y-115.57
X198.755Y-115.57
X201.295Y-115.57
X145.415Y-95.885
X145.415Y-98.425
X145.415Y-100.965
X145.415Y-103.505
X145.415Y-106.045
X145.415Y-108.585
X145.415Y-111.125
X145.415Y-113.665
X145.415Y-116.205
X145.415Y-118.745
X147.955Y-95.885
X147.955Y-98.425
X147.955Y-100.965
X147.955Y-103.505
X147.955Y-106.045
X147.955Y-108.585
X147.955Y-111.125
X147.955Y-113.665
X147.955Y-116.205
X147.955Y-118.745
X183.708Y-94.25
X186.248Y-94.25
X188.788Y-94.25
X191.328Y-94.25
X193.868Y-94.25
X196.408Y-94.25
X198.948Y-94.25
X201.488Y-94.25
T4
X146.935Y-86.995
X146.935Y-127.635
X160.654Y-87.312
X160.654Y-158.812
X224.654Y-87.312
X224.654Y-158.812
X150.711Y-29.845
X150.711Y-60.846
X225.709Y-60.846
X225.71Y-29.845
T0
M30
